# xmcd
#
# Track frame offsets:
#	150
#	25201
#	54079
#	76879
#	117982
#	141760
#	161336
#	179937
#	204388
#	240015
#	271817
#	301519
#	314870
#
# Disc length: 4580 seconds
#
# Revision: 81171893
# Processed by: cddbd v1.5.1PL0 Copyright (c) Steve Scherf et al.
# Submitted via: EasyCDDAExtractor 8.0.2.1
#
DISCID=a211e20d
DTITLE=Various Artist - Blues Paradise vol.24
DYEAR=2000
DGENRE=Blues
TTITLE0=The John Slaughter Band - St. James Infirmary
TTITLE1=Kathi McDonald - I'd Rather Go Blind
TTITLE2=Neal Black and Halers - Misery
TTITLE3=Murali Coryell - Soffly Let Me Kiss Your Lips
TTITLE4=Koko Taylor - I Cried Like A Baby
TTITLE5=B.B. King - Rusty Dusty Blues
TTITLE6=Lefthand Freddy - Oh Loretta
TTITLE7=Long John Baldry And Kathi McDonald - Insane Asylum
TTITLE8=Popa Chubby Band - I Can't Stand It Baby
TTITLE9=Tab Benoit - These Blues Are All Mine
TTITLE10=Phil Guy - Where Can I Go
TTITLE11=Jonny Nitro And The Door Slammers - Mother In Law
TTITLE12=Barry Levenson and Jake Sampson - Every Saturday Night
EXTD=YEAR: 2003
EXTT0=
EXTT1=
EXTT2=
EXTT3=
EXTT4=
EXTT5=
EXTT6=
EXTT7=
EXTT8=
EXTT9=
EXTT10=
EXTT11=
EXTT12=
PLAYORDER=
